<?xml version="1.0" encoding="iso-8859-1"?>
<!-- Generator: Adobe Illustrator 19.0.0, SVG Export Plug-In . SVG Version: 6.00 Build 0)  -->
<svg version="1.1" id="Capa_1" xmlns="http://www.w3.org/2000/svg" xmlns:xlink="http://www.w3.org/1999/xlink" x="0px" y="0px"
	 viewBox="0 0 512.023 512.023" style="enable-background:new 0 0 512.023 512.023;" xml:space="preserve">
<g>
	<g>
		<path d="M438.773,359.998c-18.705,32.68-45.894,59.868-78.574,78.574l33.293,33.293c31.563-20.16,58.422-47.01,78.574-78.573
			L438.773,359.998z"/>
	</g>
</g>
<g>
	<g>
		<path d="M73.241,359.998l-33.293,33.293c20.16,31.563,47.011,58.422,78.574,78.573l33.293-33.293
			C119.135,419.866,91.937,392.668,73.241,359.998z"/>
	</g>
</g>
<g>
	<g>
		<path d="M343.16,447.412c-1.089,0.494-2.206,0.924-3.304,1.4c-37.676,16.408-80.148,21.13-120.587,14.102
			c-16.207-2.819-32.066-7.532-47.139-14.111c-1.089-0.476-2.187-0.897-3.267-1.391l-34.08,34.08
			c1.894,1.016,3.825,1.977,5.747,2.947c36.047,18.229,76.341,27.784,116.753,27.582c39.58-0.201,78.93-9.755,114.246-27.6
			c1.903-0.97,3.825-1.913,5.71-2.928L343.16,447.412z"/>
	</g>
</g>
<g>
	<g>
		<path d="M61.344,335.765c-15.841-38.353-19.602-81.429-11.439-122.061c3.111-15.475,7.943-30.675,14.496-45.043l-34.08-34.08
			c0.577,0.595-11.11,23.556-12.061,25.962c-3.688,9.298-6.809,18.815-9.362,28.488c-5.116,19.355-7.962,39.296-8.538,59.301
			c-1.098,37.96,6.04,76.002,21.268,110.759c1.803,4.109,3.715,8.172,5.747,12.19c0.97,1.922,1.922,3.862,2.947,5.756l34.08-34.08
			c-0.494-1.089-0.924-2.196-1.4-3.285C62.433,338.374,61.884,337.074,61.344,335.765z"/>
	</g>
</g>
<g>
	<g>
		<path d="M301.942,4.065c-26.328-4.685-53.371-5.326-79.891-1.894c-26.127,3.386-51.788,10.744-75.609,22.046
			c-2.013,0.952-3.999,1.977-5.994,2.983c-1.894,0.961-3.798,1.904-5.665,2.91l34.08,34.08c1.071-0.485,2.178-0.906,3.267-1.382
			c1.309-0.567,2.617-1.126,3.935-1.675c25.331-10.451,52.748-15.64,80.129-15.603c27.61,0.037,55.238,5.381,80.733,15.997
			c2.087,0.869,4.182,1.73,6.241,2.663l34.08-34.08C353.767,17.454,328.198,8.742,301.942,4.065z"/>
	</g>
</g>
<g>
	<g>
		<path d="M393.493,39.737L360.2,73.03c32.679,18.705,59.868,45.903,78.574,78.574l33.293-33.293
			C451.906,86.748,425.056,59.889,393.493,39.737z"/>
	</g>
</g>
<g>
	<g>
		<path d="M484.622,140.283c-0.97-1.913-1.913-3.834-2.928-5.71l-34.08,34.08c0.494,1.089,0.924,2.196,1.4,3.294
			c0.567,1.29,1.116,2.59,1.656,3.889c15.942,38.6,19.712,82.033,11.32,122.903c-2.151,10.497-5.116,20.828-8.886,30.858
			c-0.778,2.068-1.592,4.127-2.443,6.177c-0.54,1.299-1.089,2.599-1.656,3.889c-0.476,1.098-0.906,2.205-1.4,3.294l34.08,34.08
			c1.016-1.885,1.958-3.807,2.928-5.71c6.26-12.391,11.439-25.258,15.539-38.463c7.742-24.947,11.631-51.065,11.622-77.237
			C511.756,215.7,502.632,175.946,484.622,140.283z"/>
	</g>
</g>
<g>
	<g>
		<path d="M118.522,39.737c-31.563,20.16-58.422,47.01-78.574,78.574l33.293,33.293c18.696-32.68,45.894-59.868,78.574-78.574
			L118.522,39.737z"/>
	</g>
</g>
<g>
	<g>
		<path d="M322.991,224.75c-10.533-11.284-50.726-56.061-66.988-74.208c-16.289,18.129-56.555,62.925-67.07,74.208
			c-21.872,23.455-17.232,54.67-5.472,68.178c10.405,11.961,20.902,17.772,32.094,17.772c13.672,0,23.72-13.105,29.156-24.224
			c2.581-5.289,4.219-12.519,11.604-12.29c7.596,0.229,9.014,8.511,11.833,13.919c3.212,6.159,7.385,12.016,12.784,16.436
			c4.365,3.569,9.7,6.159,15.438,6.159c10.954,0,21.469-5.839,32.158-17.854C340.378,279.512,345.054,248.425,322.991,224.75z"/>
	</g>
</g>
<g>
	<g>
		<path d="M446.927,235.595c-2.727-26.017-10.698-51.431-23.693-74.327c-17.278-30.447-42.883-55.951-73.403-73.092
			c-46.489-26.127-103.767-31.59-154.365-14.734c-32.039,10.67-61.113,29.989-83.46,55.292
			c-24.388,27.6-40.559,62.037-45.958,98.487c-6.223,41.986,1.565,85.501,22.412,122.5c10.671,18.943,24.526,36.075,40.852,50.424
			c28.003,24.608,62.925,40.733,99.86,45.867c41.886,5.811,85.135-2.26,121.859-23.263c18.833-10.771,35.855-24.727,50.085-41.117
			c24.892-28.671,40.833-64.389,45.446-102.093C448.346,264.916,448.456,250.154,446.927,235.595z M342.199,305.017
			c-14.368,16.152-29.358,23.995-45.839,23.995c-8.584,0-16.957-3.093-24.498-8.529c9.481,26.301,27.006,45.134,39.058,45.134
			c5.052,0,9.151,4.091,9.151,9.151s-4.1,9.151-9.151,9.151H201.104c-5.052,0-9.151-4.091-9.151-9.151s4.1-9.151,9.151-9.151
			c12.034,0,29.55-18.797,39.04-45.07c-7.047,5.134-15.264,8.465-24.59,8.465c-16.564,0-32.011-8.099-45.903-24.068
			c-15.667-18.01-24.635-59.914,5.893-92.667c12.885-13.828,73.055-80.88,73.659-81.557c1.739-1.931,4.21-3.038,6.818-3.038
			c2.599,0,5.079,1.107,6.809,3.047c0.604,0.668,60.655,67.72,73.54,81.548C365.846,243.913,358.69,286.467,342.199,305.017z"/>
	</g>
</g>
<g>
</g>
<g>
</g>
<g>
</g>
<g>
</g>
<g>
</g>
<g>
</g>
<g>
</g>
<g>
</g>
<g>
</g>
<g>
</g>
<g>
</g>
<g>
</g>
<g>
</g>
<g>
</g>
<g>
</g>
</svg>
