<?xml version="1.0" encoding="iso-8859-1"?>
<!-- Generator: Adobe Illustrator 19.0.0, SVG Export Plug-In . SVG Version: 6.00 Build 0)  -->
<svg version="1.1" id="Capa_1" xmlns="http://www.w3.org/2000/svg" xmlns:xlink="http://www.w3.org/1999/xlink" x="0px" y="0px"
	 viewBox="0 0 512 512" style="enable-background:new 0 0 512 512;" xml:space="preserve">
<g>
	<g>
		<path d="M256,0C114.842,0,0,114.842,0,256s114.842,256,256,256s256-114.842,256-256S397.158,0,256,0z M256,494.933
			C124.254,494.933,17.067,387.746,17.067,256S124.254,17.067,256,17.067S494.933,124.254,494.933,256S387.746,494.933,256,494.933z
			"/>
	</g>
</g>
<g>
	<g>
		<path d="M256,59.733C147.78,59.733,59.733,147.772,59.733,256S147.78,452.267,256,452.267S452.267,364.228,452.267,256
			S364.22,59.733,256,59.733z M256,435.2c-98.807,0-179.2-80.393-179.2-179.2S157.193,76.8,256,76.8S435.2,157.193,435.2,256
			S354.816,435.2,256,435.2z"/>
	</g>
</g>
<g>
	<g>
		<path d="M330.923,215.415c-12.015-12.894-68.011-75.418-68.574-76.041c-1.621-1.809-3.934-2.842-6.357-2.842
			c-2.423,0-4.736,1.033-6.349,2.833c-0.572,0.631-56.678,63.155-68.685,76.049c-28.467,30.541-20.105,69.615-5.495,86.409
			c12.962,14.891,27.358,22.443,42.803,22.443c16.393,0,29.227-10.837,37.683-23.697c9.66,14.78,23.39,23.697,37.675,23.697
			c15.369,0,29.346-7.313,42.735-22.374C351.744,284.587,358.417,244.915,330.923,215.415z M323.61,290.551
			c-9.967,11.204-19.772,16.649-29.986,16.649c-13.244,0-24.422-14.336-29.611-28.535c-1.229-3.362-4.429-5.598-8.013-5.598
			c-3.584,0-6.784,2.236-8.013,5.598c-5.188,14.199-16.393,28.535-29.713,28.535c-10.428,0-20.224-5.419-29.926-16.572
			c-10.957-12.595-15.283-41.702,5.103-63.573c9.813-10.522,47.36-52.292,62.549-69.197c15.155,16.913,52.634,58.675,62.447,69.197
			C339.021,249.131,334.66,278.118,323.61,290.551z"/>
	</g>
</g>
<g>
	<g>
		<path d="M307.2,358.4c-16.077,0-42.667-35.891-42.667-76.8c0-4.719-3.823-8.533-8.533-8.533c-4.71,0-8.533,3.814-8.533,8.533
			c0,40.909-26.59,76.8-42.667,76.8c-4.71,0-8.533,3.814-8.533,8.533s3.823,8.533,8.533,8.533h102.4c4.71,0,8.533-3.814,8.533-8.533
			S311.91,358.4,307.2,358.4z M236.365,358.4c7.825-8.653,14.66-20.019,19.635-32.759c4.975,12.74,11.81,24.107,19.635,32.759
			H236.365z"/>
	</g>
</g>
<g>
	<g>
		<path d="M391.526,42.59c-0.333-2.603-1.835-4.924-4.087-6.272c-39.62-23.748-85.06-36.309-131.422-36.309
			c-46.362,0-91.81,12.561-131.43,36.309c-2.253,1.348-3.755,3.661-4.079,6.272c-0.324,2.611,0.572,5.214,2.432,7.074l43.989,43.998
			c2.586,2.586,6.528,3.226,9.813,1.613C201.549,83.021,228.215,76.8,256,76.8c27.793,0,54.46,6.212,79.266,18.475
			c1.195,0.597,2.492,0.887,3.772,0.887c2.219,0,4.395-0.862,6.05-2.5l43.998-43.998C390.946,47.804,391.851,45.201,391.526,42.59z
			 M337.263,77.329C311.671,65.647,284.365,59.733,256,59.733c-28.365,0-55.68,5.914-81.271,17.596l-31.821-31.821
			c34.628-18.637,73.498-28.442,113.084-28.442c39.586,0,78.455,9.805,113.092,28.442L337.263,77.329z"/>
	</g>
</g>
<g>
	<g>
		<path d="M389.069,462.345l-43.998-43.998c-2.586-2.586-6.537-3.234-9.813-1.613c-24.815,12.254-51.482,18.475-79.266,18.475
			s-54.451-6.212-79.258-18.475c-3.277-1.621-7.219-0.981-9.813,1.613l-43.998,43.998c-1.86,1.86-2.756,4.463-2.432,7.074
			c0.324,2.603,1.826,4.924,4.079,6.272C164.19,499.439,209.638,512,256,512s91.81-12.561,131.422-36.309
			c2.261-1.348,3.763-3.661,4.088-6.272C391.825,466.808,390.929,464.205,389.069,462.345z M256,494.933
			c-39.586,0-78.455-9.805-113.092-28.442l31.838-31.821c25.591,11.682,52.907,17.596,81.263,17.596s55.672-5.914,81.263-17.596
			l31.821,31.821C334.455,485.129,295.586,494.933,256,494.933z"/>
	</g>
</g>
<g>
	<g>
		<path d="M475.691,124.587c-1.348-2.253-3.661-3.763-6.272-4.079c-2.637-0.316-5.222,0.572-7.083,2.432l-43.998,43.998
			c-2.586,2.577-3.234,6.528-1.613,9.813c12.254,24.806,18.475,51.473,18.475,79.258c0,27.785-6.212,54.451-18.475,79.258
			c-1.621,3.277-0.973,7.228,1.613,9.813l43.998,43.998c1.604,1.613,3.78,2.5,6.033,2.5c0.35,0,0.7-0.026,1.05-0.051
			c2.603-0.324,4.915-1.826,6.272-4.079c23.748-39.62,36.301-85.069,36.301-131.43S499.439,164.216,475.691,124.587z
			 M466.483,369.084l-31.821-31.821c11.682-25.591,17.596-52.915,17.596-81.28s-5.914-55.671-17.596-81.263l31.821-31.821
			c18.637,34.645,28.442,73.506,28.442,113.092C494.925,295.578,485.12,334.438,466.483,369.084z"/>
	</g>
</g>
<g>
	<g>
		<path d="M76.791,255.991c0-27.784,6.212-54.451,18.475-79.258c1.621-3.277,0.973-7.228-1.613-9.813l-43.998-43.998
			c-1.852-1.86-4.463-2.739-7.074-2.432c-2.603,0.324-4.924,1.826-6.272,4.079C12.553,164.19,0,209.63,0,256
			c0,46.353,12.553,91.802,36.309,131.422c1.348,2.261,3.661,3.772,6.272,4.087c0.341,0.043,0.691,0.068,1.041,0.068
			c2.253,0,4.429-0.896,6.033-2.517l43.998-43.998c2.586-2.577,3.234-6.528,1.613-9.813
			C83.012,310.443,76.791,283.776,76.791,255.991z M45.508,369.092C26.871,334.447,17.067,295.586,17.067,256
			s9.805-78.447,28.442-113.092l31.821,31.838c-11.674,25.591-17.596,52.898-17.596,81.263s5.914,55.671,17.596,81.263
			L45.508,369.092z"/>
	</g>
</g>
<g>
</g>
<g>
</g>
<g>
</g>
<g>
</g>
<g>
</g>
<g>
</g>
<g>
</g>
<g>
</g>
<g>
</g>
<g>
</g>
<g>
</g>
<g>
</g>
<g>
</g>
<g>
</g>
<g>
</g>
</svg>
